<svg width="508" height="84" viewBox="0 0 508 84" fill="none" xmlns="http://www.w3.org/2000/svg">
<path d="M0 16C0 7.16344 7.16344 0 16 0H492C500.837 0 508 7.16344 508 16V68C508 76.8366 500.837 84 492 84H16C7.16344 84 0 76.8366 0 68V16Z" fill="url(#paint0_radial_297_17)" fill-opacity="0.2"/>
<path d="M68.848 54.256C66.8853 54.256 65.1573 53.872 63.664 53.104C62.192 52.336 61.0507 51.2907 60.24 49.968C59.4293 48.624 59.024 47.0987 59.024 45.392C59.024 43.664 59.4187 42.1387 60.208 40.816C61.0187 39.472 62.1173 38.4267 63.504 37.68C64.8907 36.912 66.4587 36.528 68.208 36.528C69.8933 36.528 71.408 36.8907 72.752 37.616C74.1173 38.32 75.1947 39.344 75.984 40.688C76.7733 42.0107 77.168 43.6 77.168 45.456C77.168 45.648 77.1573 45.872 77.136 46.128C77.1147 46.3627 77.0933 46.5867 77.072 46.8H63.088V43.888H74.448L72.528 44.752C72.528 43.856 72.3467 43.0773 71.984 42.416C71.6213 41.7547 71.12 41.2427 70.48 40.88C69.84 40.496 69.0933 40.304 68.24 40.304C67.3867 40.304 66.6293 40.496 65.968 40.88C65.328 41.2427 64.8267 41.7653 64.464 42.448C64.1013 43.1093 63.92 43.8987 63.92 44.816V45.584C63.92 46.5227 64.1227 47.3547 64.528 48.08C64.9547 48.784 65.5413 49.328 66.288 49.712C67.056 50.0747 67.952 50.256 68.976 50.256C69.8933 50.256 70.6933 50.1173 71.376 49.84C72.08 49.5627 72.72 49.1467 73.296 48.592L75.952 51.472C75.1627 52.368 74.1707 53.0613 72.976 53.552C71.7813 54.0213 70.4053 54.256 68.848 54.256ZM77.8468 54L85.5588 43.888L85.4628 46.64L78.0708 36.784H83.6708L88.3428 43.216L86.2308 43.28L91.0628 36.784H96.3748L88.9508 46.544V43.856L96.6308 54H90.9668L86.0708 47.152L88.1508 47.44L83.2868 54H77.8468ZM109.23 54.256C107.779 54.256 106.51 53.936 105.422 53.296C104.334 52.656 103.481 51.6853 102.862 50.384C102.265 49.0613 101.966 47.3973 101.966 45.392C101.966 43.3653 102.254 41.7013 102.83 40.4C103.406 39.0987 104.238 38.128 105.326 37.488C106.414 36.848 107.715 36.528 109.23 36.528C110.851 36.528 112.302 36.9013 113.582 37.648C114.883 38.3733 115.907 39.3973 116.654 40.72C117.422 42.0427 117.806 43.6 117.806 45.392C117.806 47.2053 117.422 48.7733 116.654 50.096C115.907 51.4187 114.883 52.4427 113.582 53.168C112.302 53.8933 110.851 54.256 109.23 54.256ZM99.054 60.208V36.784H103.822V40.304L103.726 45.424L104.046 50.512V60.208H99.054ZM108.366 50.16C109.198 50.16 109.934 49.968 110.574 49.584C111.235 49.2 111.758 48.656 112.142 47.952C112.547 47.2267 112.75 46.3733 112.75 45.392C112.75 44.3893 112.547 43.536 112.142 42.832C111.758 42.128 111.235 41.584 110.574 41.2C109.934 40.816 109.198 40.624 108.366 40.624C107.534 40.624 106.787 40.816 106.126 41.2C105.465 41.584 104.942 42.128 104.558 42.832C104.174 43.536 103.982 44.3893 103.982 45.392C103.982 46.3733 104.174 47.2267 104.558 47.952C104.942 48.656 105.465 49.2 106.126 49.584C106.787 49.968 107.534 50.16 108.366 50.16ZM121.148 54V30.256H126.14V54H121.148ZM138.965 54.256C137.13 54.256 135.498 53.872 134.069 53.104C132.661 52.336 131.541 51.2907 130.709 49.968C129.898 48.624 129.493 47.0987 129.493 45.392C129.493 43.664 129.898 42.1387 130.709 40.816C131.541 39.472 132.661 38.4267 134.069 37.68C135.498 36.912 137.13 36.528 138.965 36.528C140.778 36.528 142.399 36.912 143.829 37.68C145.258 38.4267 146.378 39.4613 147.189 40.784C147.999 42.1067 148.405 43.6427 148.405 45.392C148.405 47.0987 147.999 48.624 147.189 49.968C146.378 51.2907 145.258 52.336 143.829 53.104C142.399 53.872 140.778 54.256 138.965 54.256ZM138.965 50.16C139.797 50.16 140.543 49.968 141.205 49.584C141.866 49.2 142.389 48.656 142.773 47.952C143.157 47.2267 143.349 46.3733 143.349 45.392C143.349 44.3893 143.157 43.536 142.773 42.832C142.389 42.128 141.866 41.584 141.205 41.2C140.543 40.816 139.797 40.624 138.965 40.624C138.133 40.624 137.386 40.816 136.725 41.2C136.063 41.584 135.53 42.128 135.125 42.832C134.741 43.536 134.549 44.3893 134.549 45.392C134.549 46.3733 134.741 47.2267 135.125 47.952C135.53 48.656 136.063 49.2 136.725 49.584C137.386 49.968 138.133 50.16 138.965 50.16ZM151.742 54V36.784H156.51V41.648L155.838 40.24C156.35 39.024 157.171 38.1067 158.302 37.488C159.432 36.848 160.808 36.528 162.43 36.528V41.136C162.216 41.1147 162.024 41.104 161.854 41.104C161.683 41.0827 161.502 41.072 161.31 41.072C159.944 41.072 158.835 41.4667 157.982 42.256C157.15 43.024 156.734 44.2293 156.734 45.872V54H151.742ZM173.817 54.256C171.854 54.256 170.126 53.872 168.633 53.104C167.161 52.336 166.019 51.2907 165.209 49.968C164.398 48.624 163.993 47.0987 163.993 45.392C163.993 43.664 164.387 42.1387 165.177 40.816C165.987 39.472 167.086 38.4267 168.473 37.68C169.859 36.912 171.427 36.528 173.177 36.528C174.862 36.528 176.377 36.8907 177.721 37.616C179.086 38.32 180.163 39.344 180.953 40.688C181.742 42.0107 182.137 43.6 182.137 45.456C182.137 45.648 182.126 45.872 182.105 46.128C182.083 46.3627 182.062 46.5867 182.041 46.8H168.057V43.888H179.417L177.497 44.752C177.497 43.856 177.315 43.0773 176.953 42.416C176.59 41.7547 176.089 41.2427 175.449 40.88C174.809 40.496 174.062 40.304 173.209 40.304C172.355 40.304 171.598 40.496 170.937 40.88C170.297 41.2427 169.795 41.7653 169.433 42.448C169.07 43.1093 168.889 43.8987 168.889 44.816V45.584C168.889 46.5227 169.091 47.3547 169.497 48.08C169.923 48.784 170.51 49.328 171.257 49.712C172.025 50.0747 172.921 50.256 173.945 50.256C174.862 50.256 175.662 50.1173 176.345 49.84C177.049 49.5627 177.689 49.1467 178.265 48.592L180.921 51.472C180.131 52.368 179.139 53.0613 177.945 53.552C176.75 54.0213 175.374 54.256 173.817 54.256ZM201.563 54.256C199.536 54.256 197.957 53.744 196.827 52.72C195.696 51.6747 195.131 50.128 195.131 48.08V32.976H200.123V48.016C200.123 48.7413 200.315 49.3067 200.699 49.712C201.083 50.096 201.605 50.288 202.267 50.288C203.056 50.288 203.728 50.0747 204.283 49.648L205.627 53.168C205.115 53.5307 204.496 53.808 203.771 54C203.067 54.1707 202.331 54.256 201.563 54.256ZM192.475 41.008V37.168H204.411V41.008H192.475ZM218.893 36.528C220.258 36.528 221.474 36.8053 222.541 37.36C223.629 37.8933 224.482 38.7253 225.101 39.856C225.72 40.9653 226.029 42.3947 226.029 44.144V54H221.037V44.912C221.037 43.5253 220.728 42.5013 220.109 41.84C219.512 41.1787 218.658 40.848 217.549 40.848C216.76 40.848 216.045 41.0187 215.405 41.36C214.786 41.68 214.296 42.1813 213.933 42.864C213.592 43.5467 213.421 44.4213 213.421 45.488V54H208.429V30.256H213.421V41.552L212.301 40.112C212.92 38.96 213.805 38.0747 214.957 37.456C216.109 36.8373 217.421 36.528 218.893 36.528ZM239.223 54.256C237.26 54.256 235.532 53.872 234.039 53.104C232.567 52.336 231.426 51.2907 230.615 49.968C229.804 48.624 229.399 47.0987 229.399 45.392C229.399 43.664 229.794 42.1387 230.583 40.816C231.394 39.472 232.492 38.4267 233.879 37.68C235.266 36.912 236.834 36.528 238.583 36.528C240.268 36.528 241.783 36.8907 243.127 37.616C244.492 38.32 245.57 39.344 246.359 40.688C247.148 42.0107 247.543 43.6 247.543 45.456C247.543 45.648 247.532 45.872 247.511 46.128C247.49 46.3627 247.468 46.5867 247.447 46.8H233.463V43.888H244.823L242.903 44.752C242.903 43.856 242.722 43.0773 242.359 42.416C241.996 41.7547 241.495 41.2427 240.855 40.88C240.215 40.496 239.468 40.304 238.615 40.304C237.762 40.304 237.004 40.496 236.343 40.88C235.703 41.2427 235.202 41.7653 234.839 42.448C234.476 43.1093 234.295 43.8987 234.295 44.816V45.584C234.295 46.5227 234.498 47.3547 234.903 48.08C235.33 48.784 235.916 49.328 236.663 49.712C237.431 50.0747 238.327 50.256 239.351 50.256C240.268 50.256 241.068 50.1173 241.751 49.84C242.455 49.5627 243.095 49.1467 243.671 48.592L246.327 51.472C245.538 52.368 244.546 53.0613 243.351 53.552C242.156 54.0213 240.78 54.256 239.223 54.256ZM267.193 54.256C265.764 54.256 264.484 53.9787 263.353 53.424C262.244 52.8693 261.38 52.0267 260.761 50.896C260.142 49.744 259.833 48.2827 259.833 46.512V36.784H264.825V45.776C264.825 47.2053 265.124 48.2613 265.721 48.944C266.34 49.6053 267.204 49.936 268.313 49.936C269.081 49.936 269.764 49.776 270.361 49.456C270.958 49.1147 271.428 48.6027 271.769 47.92C272.11 47.216 272.281 46.3413 272.281 45.296V36.784H277.273V54H272.537V49.264L273.401 50.64C272.825 51.8347 271.972 52.7413 270.841 53.36C269.732 53.9573 268.516 54.256 267.193 54.256ZM292.362 36.528C293.727 36.528 294.943 36.8053 296.01 37.36C297.098 37.8933 297.951 38.7253 298.57 39.856C299.188 40.9653 299.498 42.3947 299.498 44.144V54H294.506V44.912C294.506 43.5253 294.196 42.5013 293.578 41.84C292.98 41.1787 292.127 40.848 291.018 40.848C290.228 40.848 289.514 41.0187 288.874 41.36C288.255 41.68 287.764 42.1813 287.402 42.864C287.06 43.5467 286.89 44.4213 286.89 45.488V54H281.898V36.784H286.666V41.552L285.77 40.112C286.388 38.96 287.274 38.0747 288.426 37.456C289.578 36.8373 290.89 36.528 292.362 36.528ZM312.692 54.256C310.729 54.256 309.001 53.872 307.508 53.104C306.036 52.336 304.894 51.2907 304.084 49.968C303.273 48.624 302.868 47.0987 302.868 45.392C302.868 43.664 303.262 42.1387 304.052 40.816C304.862 39.472 305.961 38.4267 307.348 37.68C308.734 36.912 310.302 36.528 312.052 36.528C313.737 36.528 315.252 36.8907 316.596 37.616C317.961 38.32 319.038 39.344 319.828 40.688C320.617 42.0107 321.012 43.6 321.012 45.456C321.012 45.648 321.001 45.872 320.98 46.128C320.958 46.3627 320.937 46.5867 320.916 46.8H306.932V43.888H318.292L316.372 44.752C316.372 43.856 316.19 43.0773 315.828 42.416C315.465 41.7547 314.964 41.2427 314.324 40.88C313.684 40.496 312.937 40.304 312.084 40.304C311.23 40.304 310.473 40.496 309.812 40.88C309.172 41.2427 308.67 41.7653 308.308 42.448C307.945 43.1093 307.764 43.8987 307.764 44.816V45.584C307.764 46.5227 307.966 47.3547 308.372 48.08C308.798 48.784 309.385 49.328 310.132 49.712C310.9 50.0747 311.796 50.256 312.82 50.256C313.737 50.256 314.537 50.1173 315.22 49.84C315.924 49.5627 316.564 49.1467 317.14 48.592L319.796 51.472C319.006 52.368 318.014 53.0613 316.82 53.552C315.625 54.0213 314.249 54.256 312.692 54.256ZM321.691 54L329.403 43.888L329.307 46.64L321.915 36.784H327.515L332.187 43.216L330.075 43.28L334.907 36.784H340.219L332.795 46.544V43.856L340.475 54H334.811L329.915 47.152L331.995 47.44L327.131 54H321.691ZM353.074 54.256C351.623 54.256 350.354 53.936 349.266 53.296C348.178 52.656 347.324 51.6853 346.706 50.384C346.108 49.0613 345.81 47.3973 345.81 45.392C345.81 43.3653 346.098 41.7013 346.674 40.4C347.25 39.0987 348.082 38.128 349.17 37.488C350.258 36.848 351.559 36.528 353.074 36.528C354.695 36.528 356.146 36.9013 357.426 37.648C358.727 38.3733 359.751 39.3973 360.498 40.72C361.266 42.0427 361.65 43.6 361.65 45.392C361.65 47.2053 361.266 48.7733 360.498 50.096C359.751 51.4187 358.727 52.4427 357.426 53.168C356.146 53.8933 354.695 54.256 353.074 54.256ZM342.898 60.208V36.784H347.666V40.304L347.57 45.424L347.89 50.512V60.208H342.898ZM352.21 50.16C353.042 50.16 353.778 49.968 354.418 49.584C355.079 49.2 355.602 48.656 355.986 47.952C356.391 47.2267 356.594 46.3733 356.594 45.392C356.594 44.3893 356.391 43.536 355.986 42.832C355.602 42.128 355.079 41.584 354.418 41.2C353.778 40.816 353.042 40.624 352.21 40.624C351.378 40.624 350.631 40.816 349.97 41.2C349.308 41.584 348.786 42.128 348.402 42.832C348.018 43.536 347.826 44.3893 347.826 45.392C347.826 46.3733 348.018 47.2267 348.402 47.952C348.786 48.656 349.308 49.2 349.97 49.584C350.631 49.968 351.378 50.16 352.21 50.16ZM364.992 54V30.256H369.984V54H364.992ZM382.809 54.256C380.974 54.256 379.342 53.872 377.913 53.104C376.505 52.336 375.385 51.2907 374.553 49.968C373.742 48.624 373.337 47.0987 373.337 45.392C373.337 43.664 373.742 42.1387 374.553 40.816C375.385 39.472 376.505 38.4267 377.913 37.68C379.342 36.912 380.974 36.528 382.809 36.528C384.622 36.528 386.243 36.912 387.673 37.68C389.102 38.4267 390.222 39.4613 391.033 40.784C391.843 42.1067 392.249 43.6427 392.249 45.392C392.249 47.0987 391.843 48.624 391.033 49.968C390.222 51.2907 389.102 52.336 387.673 53.104C386.243 53.872 384.622 54.256 382.809 54.256ZM382.809 50.16C383.641 50.16 384.387 49.968 385.049 49.584C385.71 49.2 386.233 48.656 386.617 47.952C387.001 47.2267 387.193 46.3733 387.193 45.392C387.193 44.3893 387.001 43.536 386.617 42.832C386.233 42.128 385.71 41.584 385.049 41.2C384.387 40.816 383.641 40.624 382.809 40.624C381.977 40.624 381.23 40.816 380.569 41.2C379.907 41.584 379.374 42.128 378.969 42.832C378.585 43.536 378.393 44.3893 378.393 45.392C378.393 46.3733 378.585 47.2267 378.969 47.952C379.374 48.656 379.907 49.2 380.569 49.584C381.23 49.968 381.977 50.16 382.809 50.16ZM395.585 54V36.784H400.353V41.648L399.681 40.24C400.193 39.024 401.015 38.1067 402.145 37.488C403.276 36.848 404.652 36.528 406.273 36.528V41.136C406.06 41.1147 405.868 41.104 405.697 41.104C405.527 41.0827 405.345 41.072 405.153 41.072C403.788 41.072 402.679 41.4667 401.825 42.256C400.993 43.024 400.577 44.2293 400.577 45.872V54H395.585ZM417.661 54.256C415.698 54.256 413.97 53.872 412.477 53.104C411.005 52.336 409.863 51.2907 409.053 49.968C408.242 48.624 407.837 47.0987 407.837 45.392C407.837 43.664 408.231 42.1387 409.021 40.816C409.831 39.472 410.93 38.4267 412.317 37.68C413.703 36.912 415.271 36.528 417.021 36.528C418.706 36.528 420.221 36.8907 421.565 37.616C422.93 38.32 424.007 39.344 424.797 40.688C425.586 42.0107 425.981 43.6 425.981 45.456C425.981 45.648 425.97 45.872 425.949 46.128C425.927 46.3627 425.906 46.5867 425.885 46.8H411.901V43.888H423.26L421.341 44.752C421.341 43.856 421.159 43.0773 420.797 42.416C420.434 41.7547 419.933 41.2427 419.293 40.88C418.653 40.496 417.906 40.304 417.053 40.304C416.199 40.304 415.442 40.496 414.781 40.88C414.141 41.2427 413.639 41.7653 413.277 42.448C412.914 43.1093 412.733 43.8987 412.733 44.816V45.584C412.733 46.5227 412.935 47.3547 413.341 48.08C413.767 48.784 414.354 49.328 415.101 49.712C415.869 50.0747 416.765 50.256 417.789 50.256C418.706 50.256 419.506 50.1173 420.189 49.84C420.893 49.5627 421.533 49.1467 422.109 48.592L424.765 51.472C423.975 52.368 422.983 53.0613 421.789 53.552C420.594 54.0213 419.218 54.256 417.661 54.256ZM436.696 54.256C435.075 54.256 433.613 53.8933 432.312 53.168C431.011 52.4213 429.976 51.3867 429.208 50.064C428.461 48.7413 428.088 47.184 428.088 45.392C428.088 43.5787 428.461 42.0107 429.208 40.688C429.976 39.3653 431.011 38.3413 432.312 37.616C433.613 36.8907 435.075 36.528 436.696 36.528C438.147 36.528 439.416 36.848 440.504 37.488C441.592 38.128 442.435 39.0987 443.032 40.4C443.629 41.7013 443.928 43.3653 443.928 45.392C443.928 47.3973 443.64 49.0613 443.064 50.384C442.488 51.6853 441.656 52.656 440.568 53.296C439.501 53.936 438.211 54.256 436.696 54.256ZM437.56 50.16C438.371 50.16 439.107 49.968 439.768 49.584C440.429 49.2 440.952 48.656 441.336 47.952C441.741 47.2267 441.944 46.3733 441.944 45.392C441.944 44.3893 441.741 43.536 441.336 42.832C440.952 42.128 440.429 41.584 439.768 41.2C439.107 40.816 438.371 40.624 437.56 40.624C436.728 40.624 435.981 40.816 435.32 41.2C434.659 41.584 434.125 42.128 433.72 42.832C433.336 43.536 433.144 44.3893 433.144 45.392C433.144 46.3733 433.336 47.2267 433.72 47.952C434.125 48.656 434.659 49.2 435.32 49.584C435.981 49.968 436.728 50.16 437.56 50.16ZM442.072 54V50.48L442.168 45.36L441.848 40.272V30.256H446.84V54H442.072Z" fill="white"/>
<defs>
<radialGradient id="paint0_radial_297_17" cx="0" cy="0" r="1" gradientUnits="userSpaceOnUse" gradientTransform="translate(254 42) rotate(90) scale(239 404.024)">
<stop stop-color="#524C4C"/>
<stop offset="0.932292" stop-opacity="0.9"/>
</radialGradient>
</defs>
</svg>
