<svg width="172" height="240" viewBox="0 0 172 240" fill="none" xmlns="http://www.w3.org/2000/svg">
<path d="M30.5625 100.656C30.5625 99.2188 30.875 97.7188 31.5 96.1562C32.125 94.5312 32.6875 93.1562 33.1875 92.0312C33.625 91.1562 34.3125 89.8125 35.25 88C36.1875 86.125 37.25 84.0312 38.4375 81.7188C39.625 79.4062 40.875 76.9688 42.1875 74.4062C43.5625 71.8438 44.8438 69.4062 46.0312 67.0938C47.2188 64.7812 48.2812 62.7188 49.2188 60.9062C50.2188 59.0312 50.9375 57.6562 51.375 56.7812C51.4375 56.7188 51.5625 56.5 51.75 56.125C52 55.75 52.25 55.375 52.5 55C52.8125 54.625 53.0938 54.2812 53.3438 53.9688C53.5938 53.5938 53.75 53.3438 53.8125 53.2188C53.875 53.0938 53.8438 52.9688 53.7188 52.8438C53.5938 52.7188 53.5312 52.5938 53.5312 52.4688C50.8438 52.7812 48.0312 53.1875 45.0938 53.6875C42.2188 54.1875 39.3438 54.7812 36.4688 55.4688C33.6562 56.0938 30.9375 56.8438 28.3125 57.7188C25.6875 58.5312 23.3125 59.4688 21.1875 60.5312C20.5 60.5312 19.875 60.4062 19.3125 60.1562C18.75 59.9062 18.4688 59.4062 18.4688 58.6562V58.375C18.4688 58.3125 18.5 58.2188 18.5625 58.0938C18.6875 57.7812 18.875 57.3125 19.125 56.6875C19.4375 56 19.6562 55.625 19.7812 55.5625L28.3125 51.9062L85.4062 37.375C86.0938 39.125 86.0312 40.5312 85.2188 41.5938C84.4688 42.5938 83.25 43.4375 81.5625 44.125C79.875 44.75 77.9062 45.3125 75.6562 45.8125C73.4688 46.25 71.25 46.8125 69 47.5C66.8125 48.125 64.7812 49 62.9062 50.125C61.0312 51.1875 59.625 52.625 58.6875 54.4375C54.625 62.5 50.4375 70.5312 46.125 78.5312C41.875 86.5312 37.9688 94.6875 34.4062 103C34.3438 103 34.2188 103 34.0312 103C33.9062 103.062 33.8125 103.094 33.75 103.094C32.9375 103.094 32.1875 102.906 31.5 102.531C30.875 102.156 30.5625 101.531 30.5625 100.656ZM97.875 103.094C96.3125 103.344 94.875 103.094 93.5625 102.344C92.3125 101.531 91.3125 100.5 90.5625 99.25C89.8125 97.9375 89.375 96.5312 89.25 95.0312C89.125 93.4688 89.4375 92.0625 90.1875 90.8125C92.9375 87.25 94.8125 84.4375 95.8125 82.375C96.8125 80.25 97.1562 78.7812 96.8438 77.9688C96.5938 77.0938 95.8125 76.75 94.5 76.9375C93.25 77.0625 91.7188 77.625 89.9062 78.625C88.0938 79.5625 86.125 80.8125 84 82.375C81.9375 83.9375 80 85.6562 78.1875 87.5312C76.375 89.4062 74.7812 91.375 73.4062 93.4375C72.0938 95.4375 71.25 97.4062 70.875 99.3438C70.25 99.7188 69.7188 100.031 69.2812 100.281C68.8438 100.469 68.3438 100.562 67.7812 100.562C66.8438 100.562 66.2812 100.25 66.0938 99.625C65.9062 99 65.8125 98.3438 65.8125 97.6562C65.8125 96.0938 66.2812 94.5 67.2188 92.875C68.2188 91.1875 69.3438 89.625 70.5938 88.1875C71.9062 86.6875 73.1562 85.3438 74.3438 84.1562C75.5312 82.9062 76.375 81.9062 76.875 81.1562C78.4375 78.5938 80 75.8438 81.5625 72.9062C83.125 69.9062 84.6875 66.875 86.25 63.8125C87.8125 60.6875 89.4062 57.625 91.0312 54.625C92.7188 51.5625 94.4688 48.6562 96.2812 45.9062C96.5938 45.4062 96.8438 45.0625 97.0312 44.875C97.2812 44.6875 97.625 44.5938 98.0625 44.5938C98.5625 44.5938 98.9375 44.6875 99.1875 44.875C99.4375 45.0625 99.6875 45.4062 99.9375 45.9062C99.9375 46.1562 99.875 46.5625 99.75 47.125C99.6875 47.6875 99.5938 48.3125 99.4688 49C99.4062 49.625 99.2812 50.2188 99.0938 50.7812C98.9688 51.3438 98.875 51.7188 98.8125 51.9062C98.4375 52.6562 97.8125 53.9688 96.9375 55.8438C96.0625 57.7188 95.0938 59.7188 94.0312 61.8438C93.0312 63.9688 92.0625 66.0625 91.125 68.125C90.1875 70.125 89.5 71.625 89.0625 72.625C90 72 90.8438 71.5312 91.5938 71.2188C92.3438 70.8438 93.0625 70.5938 93.75 70.4688C94.5 70.2812 95.25 70.1875 96 70.1875C96.8125 70.125 97.6875 70.0938 98.625 70.0938C100.875 70.6562 102.344 71.5 103.031 72.625C103.781 73.75 104 75.0625 103.688 76.5625C103.438 78 102.844 79.5938 101.906 81.3438C100.969 83.0938 99.9688 84.875 98.9062 86.6875C97.9062 88.4375 97 90.1562 96.1875 91.8438C95.375 93.4688 95 94.9688 95.0625 96.3438C95.0625 96.9062 95.1875 97.3125 95.4375 97.5625C95.6875 97.8125 96 98 96.375 98.125C96.75 98.25 97.1562 98.3125 97.5938 98.3125C98.0312 98.3125 98.4375 98.3125 98.8125 98.3125C100.125 98.3125 101.375 98.125 102.562 97.75C103.812 97.3125 105.031 96.8438 106.219 96.3438C107.406 95.8438 108.594 95.4062 109.781 95.0312C111.031 94.5938 112.312 94.375 113.625 94.375C113.625 95.5625 113.031 96.6875 111.844 97.75C110.656 98.8125 109.219 99.75 107.531 100.562C105.906 101.312 104.188 101.938 102.375 102.438C100.562 102.875 99.0625 103.094 97.875 103.094ZM110.531 98.125C109.469 95.75 109 93.4375 109.125 91.1875C109.25 88.875 109.75 86.7188 110.625 84.7188C111.562 82.6562 112.75 80.8125 114.188 79.1875C115.688 77.5 117.281 76.0625 118.969 74.875C120.656 73.625 122.344 72.6875 124.031 72.0625C125.781 71.4375 127.312 71.1875 128.625 71.3125C129.938 71.375 130.969 71.8438 131.719 72.7188C132.469 73.5938 132.719 74.9375 132.469 76.75C132.469 79.1875 131.688 81.3125 130.125 83.125C128.625 84.9375 126.938 86.5625 125.062 88C123.25 89.4375 121.562 90.75 120 91.9375C118.5 93.0625 117.75 94.125 117.75 95.125C117.75 95.6875 118.062 96.125 118.688 96.4375C119.375 96.75 120.156 97 121.031 97.1875C121.906 97.3125 122.781 97.4062 123.656 97.4688C124.531 97.5312 125.156 97.5938 125.531 97.6562C131.406 96.4062 135.812 95.6562 138.75 95.4062C141.688 95.0938 143.531 95.125 144.281 95.5C145.031 95.8125 144.875 96.3438 143.812 97.0938C142.812 97.7812 141.25 98.5312 139.125 99.3438C137 100.094 134.531 100.781 131.719 101.406C128.906 102.031 126.125 102.406 123.375 102.531C120.625 102.594 118.062 102.312 115.688 101.688C113.375 101.062 111.656 99.875 110.531 98.125ZM126.938 76.75C125.688 76.75 124.5 77.0938 123.375 77.7812C122.25 78.4688 121.219 79.3438 120.281 80.4062C119.406 81.4062 118.656 82.5312 118.031 83.7812C117.406 84.9688 116.938 86.0938 116.625 87.1562C116.75 87.2188 116.844 87.25 116.906 87.25H117.188C118.062 87.25 119.062 86.875 120.188 86.125C121.312 85.375 122.375 84.4688 123.375 83.4062C124.375 82.2812 125.219 81.125 125.906 79.9375C126.594 78.75 126.938 77.6875 126.938 76.75Z" fill="white"/>
<path d="M23.288 230.32C19.96 230.32 16.9733 229.595 14.328 228.144C11.7253 226.651 9.67733 224.624 8.184 222.064C6.69067 219.461 5.944 216.496 5.944 213.168C5.944 209.797 6.69067 206.832 8.184 204.272C9.67733 201.712 11.7253 199.707 14.328 198.256C16.9733 196.805 19.96 196.08 23.288 196.08C26.1467 196.08 28.728 196.635 31.032 197.744C33.336 198.853 35.1493 200.517 36.472 202.736L33.08 205.04C31.928 203.333 30.4987 202.075 28.792 201.264C27.0853 200.453 25.2293 200.048 23.224 200.048C20.8347 200.048 18.68 200.603 16.76 201.712C14.84 202.779 13.3253 204.293 12.216 206.256C11.1067 208.219 10.552 210.523 10.552 213.168C10.552 215.813 11.1067 218.117 12.216 220.08C13.3253 222.043 14.84 223.579 16.76 224.688C18.68 225.755 20.8347 226.288 23.224 226.288C25.2293 226.288 27.0853 225.883 28.792 225.072C30.4987 224.261 31.928 223.024 33.08 221.36L36.472 223.664C35.1493 225.84 33.336 227.504 31.032 228.656C28.728 229.765 26.1467 230.32 23.288 230.32ZM44.8985 230V182.512H49.4425V230H44.8985ZM75.974 230.32C73.1153 230.32 70.6193 229.787 68.486 228.72C66.3527 227.653 64.6887 226.053 63.494 223.92C62.342 221.787 61.766 219.12 61.766 215.92V196.4H66.31V215.408C66.31 218.992 67.1847 221.701 68.934 223.536C70.726 225.328 73.222 226.224 76.422 226.224C78.7687 226.224 80.7953 225.755 82.502 224.816C84.2513 223.835 85.574 222.427 86.47 220.592C87.4087 218.757 87.878 216.56 87.878 214V196.4H92.422V230H88.07V220.784L88.774 222.448C87.7073 224.923 86.0433 226.864 83.782 228.272C81.5633 229.637 78.9607 230.32 75.974 230.32ZM122.43 230.32C119.486 230.32 116.841 229.659 114.494 228.336C112.147 226.971 110.291 225.008 108.926 222.448C107.561 219.888 106.878 216.795 106.878 213.168C106.878 209.499 107.561 206.405 108.926 203.888C110.334 201.328 112.211 199.387 114.558 198.064C116.905 196.741 119.529 196.08 122.43 196.08C125.63 196.08 128.489 196.805 131.006 198.256C133.566 199.664 135.571 201.648 137.022 204.208C138.473 206.768 139.198 209.755 139.198 213.168C139.198 216.539 138.473 219.525 137.022 222.128C135.571 224.688 133.566 226.693 131.006 228.144C128.489 229.595 125.63 230.32 122.43 230.32ZM105.086 230V182.512H109.63V206.32L108.99 213.104L109.438 219.888V230H105.086ZM122.11 226.288C124.499 226.288 126.633 225.755 128.51 224.688C130.387 223.579 131.881 222.043 132.99 220.08C134.099 218.075 134.654 215.771 134.654 213.168C134.654 210.523 134.099 208.219 132.99 206.256C131.881 204.293 130.387 202.779 128.51 201.712C126.633 200.603 124.499 200.048 122.11 200.048C119.721 200.048 117.566 200.603 115.646 201.712C113.769 202.779 112.275 204.293 111.166 206.256C110.099 208.219 109.566 210.523 109.566 213.168C109.566 215.771 110.099 218.075 111.166 220.08C112.275 222.043 113.769 223.579 115.646 224.688C117.566 225.755 119.721 226.288 122.11 226.288Z" fill="white"/>
<path d="M0 163V128H35V133H10V143H30V148H10V163H0ZM40 163V138H45V133H50V128H65V133H70V138H75V163H65V153H50V163H40ZM50 148H65V138H60V133H55V138H50V148ZM80 163V128H90V133H95V138H100V143H105V128H115V163H105V153H100V148H95V143H90V163H80ZM120 163V128H155V133H130V143H150V148H130V158H155V163H120Z" fill="white"/>
</svg>
