<svg width="508" height="339" viewBox="0 0 508 339" fill="none" xmlns="http://www.w3.org/2000/svg">
<path d="M220.562 100.656C220.562 99.2188 220.875 97.7188 221.5 96.1562C222.125 94.5312 222.688 93.1562 223.188 92.0312C223.625 91.1562 224.312 89.8125 225.25 88C226.188 86.125 227.25 84.0312 228.438 81.7188C229.625 79.4062 230.875 76.9688 232.188 74.4062C233.562 71.8438 234.844 69.4062 236.031 67.0938C237.219 64.7812 238.281 62.7188 239.219 60.9062C240.219 59.0312 240.938 57.6562 241.375 56.7812C241.438 56.7188 241.562 56.5 241.75 56.125C242 55.75 242.25 55.375 242.5 55C242.812 54.625 243.094 54.2812 243.344 53.9688C243.594 53.5938 243.75 53.3438 243.812 53.2188C243.875 53.0938 243.844 52.9688 243.719 52.8438C243.594 52.7188 243.531 52.5938 243.531 52.4688C240.844 52.7812 238.031 53.1875 235.094 53.6875C232.219 54.1875 229.344 54.7812 226.469 55.4688C223.656 56.0938 220.938 56.8438 218.312 57.7188C215.688 58.5312 213.312 59.4688 211.188 60.5312C210.5 60.5312 209.875 60.4062 209.312 60.1562C208.75 59.9062 208.469 59.4062 208.469 58.6562V58.375C208.469 58.3125 208.5 58.2188 208.562 58.0938C208.688 57.7812 208.875 57.3125 209.125 56.6875C209.438 56 209.656 55.625 209.781 55.5625L218.312 51.9062L275.406 37.375C276.094 39.125 276.031 40.5312 275.219 41.5938C274.469 42.5938 273.25 43.4375 271.562 44.125C269.875 44.75 267.906 45.3125 265.656 45.8125C263.469 46.25 261.25 46.8125 259 47.5C256.812 48.125 254.781 49 252.906 50.125C251.031 51.1875 249.625 52.625 248.688 54.4375C244.625 62.5 240.438 70.5312 236.125 78.5312C231.875 86.5312 227.969 94.6875 224.406 103C224.344 103 224.219 103 224.031 103C223.906 103.062 223.812 103.094 223.75 103.094C222.938 103.094 222.188 102.906 221.5 102.531C220.875 102.156 220.562 101.531 220.562 100.656ZM287.875 103.094C286.312 103.344 284.875 103.094 283.562 102.344C282.312 101.531 281.312 100.5 280.562 99.25C279.812 97.9375 279.375 96.5312 279.25 95.0312C279.125 93.4688 279.438 92.0625 280.188 90.8125C282.938 87.25 284.812 84.4375 285.812 82.375C286.812 80.25 287.156 78.7812 286.844 77.9688C286.594 77.0938 285.812 76.75 284.5 76.9375C283.25 77.0625 281.719 77.625 279.906 78.625C278.094 79.5625 276.125 80.8125 274 82.375C271.938 83.9375 270 85.6562 268.188 87.5312C266.375 89.4062 264.781 91.375 263.406 93.4375C262.094 95.4375 261.25 97.4062 260.875 99.3438C260.25 99.7188 259.719 100.031 259.281 100.281C258.844 100.469 258.344 100.562 257.781 100.562C256.844 100.562 256.281 100.25 256.094 99.625C255.906 99 255.812 98.3438 255.812 97.6562C255.812 96.0938 256.281 94.5 257.219 92.875C258.219 91.1875 259.344 89.625 260.594 88.1875C261.906 86.6875 263.156 85.3438 264.344 84.1562C265.531 82.9062 266.375 81.9062 266.875 81.1562C268.438 78.5938 270 75.8438 271.562 72.9062C273.125 69.9062 274.688 66.875 276.25 63.8125C277.812 60.6875 279.406 57.625 281.031 54.625C282.719 51.5625 284.469 48.6562 286.281 45.9062C286.594 45.4062 286.844 45.0625 287.031 44.875C287.281 44.6875 287.625 44.5938 288.062 44.5938C288.562 44.5938 288.938 44.6875 289.188 44.875C289.438 45.0625 289.688 45.4062 289.938 45.9062C289.938 46.1562 289.875 46.5625 289.75 47.125C289.688 47.6875 289.594 48.3125 289.469 49C289.406 49.625 289.281 50.2188 289.094 50.7812C288.969 51.3438 288.875 51.7188 288.812 51.9062C288.438 52.6562 287.812 53.9688 286.938 55.8438C286.062 57.7188 285.094 59.7188 284.031 61.8438C283.031 63.9688 282.062 66.0625 281.125 68.125C280.188 70.125 279.5 71.625 279.062 72.625C280 72 280.844 71.5312 281.594 71.2188C282.344 70.8438 283.062 70.5938 283.75 70.4688C284.5 70.2812 285.25 70.1875 286 70.1875C286.812 70.125 287.688 70.0938 288.625 70.0938C290.875 70.6562 292.344 71.5 293.031 72.625C293.781 73.75 294 75.0625 293.688 76.5625C293.438 78 292.844 79.5938 291.906 81.3438C290.969 83.0938 289.969 84.875 288.906 86.6875C287.906 88.4375 287 90.1562 286.188 91.8438C285.375 93.4688 285 94.9688 285.062 96.3438C285.062 96.9062 285.188 97.3125 285.438 97.5625C285.688 97.8125 286 98 286.375 98.125C286.75 98.25 287.156 98.3125 287.594 98.3125C288.031 98.3125 288.438 98.3125 288.812 98.3125C290.125 98.3125 291.375 98.125 292.562 97.75C293.812 97.3125 295.031 96.8438 296.219 96.3438C297.406 95.8438 298.594 95.4062 299.781 95.0312C301.031 94.5938 302.312 94.375 303.625 94.375C303.625 95.5625 303.031 96.6875 301.844 97.75C300.656 98.8125 299.219 99.75 297.531 100.562C295.906 101.312 294.188 101.938 292.375 102.438C290.562 102.875 289.062 103.094 287.875 103.094ZM300.531 98.125C299.469 95.75 299 93.4375 299.125 91.1875C299.25 88.875 299.75 86.7188 300.625 84.7188C301.562 82.6562 302.75 80.8125 304.188 79.1875C305.688 77.5 307.281 76.0625 308.969 74.875C310.656 73.625 312.344 72.6875 314.031 72.0625C315.781 71.4375 317.312 71.1875 318.625 71.3125C319.938 71.375 320.969 71.8438 321.719 72.7188C322.469 73.5938 322.719 74.9375 322.469 76.75C322.469 79.1875 321.688 81.3125 320.125 83.125C318.625 84.9375 316.938 86.5625 315.062 88C313.25 89.4375 311.562 90.75 310 91.9375C308.5 93.0625 307.75 94.125 307.75 95.125C307.75 95.6875 308.062 96.125 308.688 96.4375C309.375 96.75 310.156 97 311.031 97.1875C311.906 97.3125 312.781 97.4062 313.656 97.4688C314.531 97.5312 315.156 97.5938 315.531 97.6562C321.406 96.4062 325.812 95.6562 328.75 95.4062C331.688 95.0938 333.531 95.125 334.281 95.5C335.031 95.8125 334.875 96.3438 333.812 97.0938C332.812 97.7812 331.25 98.5312 329.125 99.3438C327 100.094 324.531 100.781 321.719 101.406C318.906 102.031 316.125 102.406 313.375 102.531C310.625 102.594 308.062 102.312 305.688 101.688C303.375 101.062 301.656 99.875 300.531 98.125ZM316.938 76.75C315.688 76.75 314.5 77.0938 313.375 77.7812C312.25 78.4688 311.219 79.3438 310.281 80.4062C309.406 81.4062 308.656 82.5312 308.031 83.7812C307.406 84.9688 306.938 86.0938 306.625 87.1562C306.75 87.2188 306.844 87.25 306.906 87.25H307.188C308.062 87.25 309.062 86.875 310.188 86.125C311.312 85.375 312.375 84.4688 313.375 83.4062C314.375 82.2812 315.219 81.125 315.906 79.9375C316.594 78.75 316.938 77.6875 316.938 76.75Z" fill="white"/>
<path d="M213.288 230.32C209.96 230.32 206.973 229.595 204.328 228.144C201.725 226.651 199.677 224.624 198.184 222.064C196.691 219.461 195.944 216.496 195.944 213.168C195.944 209.797 196.691 206.832 198.184 204.272C199.677 201.712 201.725 199.707 204.328 198.256C206.973 196.805 209.96 196.08 213.288 196.08C216.147 196.08 218.728 196.635 221.032 197.744C223.336 198.853 225.149 200.517 226.472 202.736L223.08 205.04C221.928 203.333 220.499 202.075 218.792 201.264C217.085 200.453 215.229 200.048 213.224 200.048C210.835 200.048 208.68 200.603 206.76 201.712C204.84 202.779 203.325 204.293 202.216 206.256C201.107 208.219 200.552 210.523 200.552 213.168C200.552 215.813 201.107 218.117 202.216 220.08C203.325 222.043 204.84 223.579 206.76 224.688C208.68 225.755 210.835 226.288 213.224 226.288C215.229 226.288 217.085 225.883 218.792 225.072C220.499 224.261 221.928 223.024 223.08 221.36L226.472 223.664C225.149 225.84 223.336 227.504 221.032 228.656C218.728 229.765 216.147 230.32 213.288 230.32ZM234.899 230V182.512H239.443V230H234.899ZM265.974 230.32C263.115 230.32 260.619 229.787 258.486 228.72C256.353 227.653 254.689 226.053 253.494 223.92C252.342 221.787 251.766 219.12 251.766 215.92V196.4H256.31V215.408C256.31 218.992 257.185 221.701 258.934 223.536C260.726 225.328 263.222 226.224 266.422 226.224C268.769 226.224 270.795 225.755 272.502 224.816C274.251 223.835 275.574 222.427 276.47 220.592C277.409 218.757 277.878 216.56 277.878 214V196.4H282.422V230H278.07V220.784L278.774 222.448C277.707 224.923 276.043 226.864 273.782 228.272C271.563 229.637 268.961 230.32 265.974 230.32ZM312.43 230.32C309.486 230.32 306.841 229.659 304.494 228.336C302.147 226.971 300.291 225.008 298.926 222.448C297.561 219.888 296.878 216.795 296.878 213.168C296.878 209.499 297.561 206.405 298.926 203.888C300.334 201.328 302.211 199.387 304.558 198.064C306.905 196.741 309.529 196.08 312.43 196.08C315.63 196.08 318.489 196.805 321.006 198.256C323.566 199.664 325.571 201.648 327.022 204.208C328.473 206.768 329.198 209.755 329.198 213.168C329.198 216.539 328.473 219.525 327.022 222.128C325.571 224.688 323.566 226.693 321.006 228.144C318.489 229.595 315.63 230.32 312.43 230.32ZM295.086 230V182.512H299.63V206.32L298.99 213.104L299.438 219.888V230H295.086ZM312.11 226.288C314.499 226.288 316.633 225.755 318.51 224.688C320.387 223.579 321.881 222.043 322.99 220.08C324.099 218.075 324.654 215.771 324.654 213.168C324.654 210.523 324.099 208.219 322.99 206.256C321.881 204.293 320.387 202.779 318.51 201.712C316.633 200.603 314.499 200.048 312.11 200.048C309.721 200.048 307.566 200.603 305.646 201.712C303.769 202.779 302.275 204.293 301.166 206.256C300.099 208.219 299.566 210.523 299.566 213.168C299.566 215.771 300.099 218.075 301.166 220.08C302.275 222.043 303.769 223.579 305.646 224.688C307.566 225.755 309.721 226.288 312.11 226.288Z" fill="white"/>
<path d="M190 163V128H225V133H200V143H220V148H200V163H190ZM230 163V138H235V133H240V128H255V133H260V138H265V163H255V153H240V163H230ZM240 148H255V138H250V133H245V138H240V148ZM270 163V128H280V133H285V138H290V143H295V128H305V163H295V153H290V148H285V143H280V163H270ZM310 163V128H345V133H320V143H340V148H320V158H345V163H310Z" fill="white"/>
<path d="M0 271C0 262.163 7.16344 255 16 255H492C500.837 255 508 262.163 508 271V323C508 331.837 500.837 339 492 339H16C7.16344 339 0 331.837 0 323V271Z" fill="url(#paint0_radial_305_3)" fill-opacity="0.2"/>
<path d="M68.848 309.256C66.8853 309.256 65.1573 308.872 63.664 308.104C62.192 307.336 61.0507 306.291 60.24 304.968C59.4293 303.624 59.024 302.099 59.024 300.392C59.024 298.664 59.4187 297.139 60.208 295.816C61.0187 294.472 62.1173 293.427 63.504 292.68C64.8907 291.912 66.4587 291.528 68.208 291.528C69.8933 291.528 71.408 291.891 72.752 292.616C74.1173 293.32 75.1947 294.344 75.984 295.688C76.7733 297.011 77.168 298.6 77.168 300.456C77.168 300.648 77.1573 300.872 77.136 301.128C77.1147 301.363 77.0933 301.587 77.072 301.8H63.088V298.888H74.448L72.528 299.752C72.528 298.856 72.3467 298.077 71.984 297.416C71.6213 296.755 71.12 296.243 70.48 295.88C69.84 295.496 69.0933 295.304 68.24 295.304C67.3867 295.304 66.6293 295.496 65.968 295.88C65.328 296.243 64.8267 296.765 64.464 297.448C64.1013 298.109 63.92 298.899 63.92 299.816V300.584C63.92 301.523 64.1227 302.355 64.528 303.08C64.9547 303.784 65.5413 304.328 66.288 304.712C67.056 305.075 67.952 305.256 68.976 305.256C69.8933 305.256 70.6933 305.117 71.376 304.84C72.08 304.563 72.72 304.147 73.296 303.592L75.952 306.472C75.1627 307.368 74.1707 308.061 72.976 308.552C71.7813 309.021 70.4053 309.256 68.848 309.256ZM77.8468 309L85.5588 298.888L85.4628 301.64L78.0708 291.784H83.6708L88.3428 298.216L86.2308 298.28L91.0628 291.784H96.3748L88.9508 301.544V298.856L96.6308 309H90.9668L86.0708 302.152L88.1508 302.44L83.2868 309H77.8468ZM109.23 309.256C107.779 309.256 106.51 308.936 105.422 308.296C104.334 307.656 103.481 306.685 102.862 305.384C102.265 304.061 101.966 302.397 101.966 300.392C101.966 298.365 102.254 296.701 102.83 295.4C103.406 294.099 104.238 293.128 105.326 292.488C106.414 291.848 107.715 291.528 109.23 291.528C110.851 291.528 112.302 291.901 113.582 292.648C114.883 293.373 115.907 294.397 116.654 295.72C117.422 297.043 117.806 298.6 117.806 300.392C117.806 302.205 117.422 303.773 116.654 305.096C115.907 306.419 114.883 307.443 113.582 308.168C112.302 308.893 110.851 309.256 109.23 309.256ZM99.054 315.208V291.784H103.822V295.304L103.726 300.424L104.046 305.512V315.208H99.054ZM108.366 305.16C109.198 305.16 109.934 304.968 110.574 304.584C111.235 304.2 111.758 303.656 112.142 302.952C112.547 302.227 112.75 301.373 112.75 300.392C112.75 299.389 112.547 298.536 112.142 297.832C111.758 297.128 111.235 296.584 110.574 296.2C109.934 295.816 109.198 295.624 108.366 295.624C107.534 295.624 106.787 295.816 106.126 296.2C105.465 296.584 104.942 297.128 104.558 297.832C104.174 298.536 103.982 299.389 103.982 300.392C103.982 301.373 104.174 302.227 104.558 302.952C104.942 303.656 105.465 304.2 106.126 304.584C106.787 304.968 107.534 305.16 108.366 305.16ZM121.148 309V285.256H126.14V309H121.148ZM138.965 309.256C137.13 309.256 135.498 308.872 134.069 308.104C132.661 307.336 131.541 306.291 130.709 304.968C129.898 303.624 129.493 302.099 129.493 300.392C129.493 298.664 129.898 297.139 130.709 295.816C131.541 294.472 132.661 293.427 134.069 292.68C135.498 291.912 137.13 291.528 138.965 291.528C140.778 291.528 142.399 291.912 143.829 292.68C145.258 293.427 146.378 294.461 147.189 295.784C147.999 297.107 148.405 298.643 148.405 300.392C148.405 302.099 147.999 303.624 147.189 304.968C146.378 306.291 145.258 307.336 143.829 308.104C142.399 308.872 140.778 309.256 138.965 309.256ZM138.965 305.16C139.797 305.16 140.543 304.968 141.205 304.584C141.866 304.2 142.389 303.656 142.773 302.952C143.157 302.227 143.349 301.373 143.349 300.392C143.349 299.389 143.157 298.536 142.773 297.832C142.389 297.128 141.866 296.584 141.205 296.2C140.543 295.816 139.797 295.624 138.965 295.624C138.133 295.624 137.386 295.816 136.725 296.2C136.063 296.584 135.53 297.128 135.125 297.832C134.741 298.536 134.549 299.389 134.549 300.392C134.549 301.373 134.741 302.227 135.125 302.952C135.53 303.656 136.063 304.2 136.725 304.584C137.386 304.968 138.133 305.16 138.965 305.16ZM151.742 309V291.784H156.51V296.648L155.838 295.24C156.35 294.024 157.171 293.107 158.302 292.488C159.432 291.848 160.808 291.528 162.43 291.528V296.136C162.216 296.115 162.024 296.104 161.854 296.104C161.683 296.083 161.502 296.072 161.31 296.072C159.944 296.072 158.835 296.467 157.982 297.256C157.15 298.024 156.734 299.229 156.734 300.872V309H151.742ZM173.817 309.256C171.854 309.256 170.126 308.872 168.633 308.104C167.161 307.336 166.019 306.291 165.209 304.968C164.398 303.624 163.993 302.099 163.993 300.392C163.993 298.664 164.387 297.139 165.177 295.816C165.987 294.472 167.086 293.427 168.473 292.68C169.859 291.912 171.427 291.528 173.177 291.528C174.862 291.528 176.377 291.891 177.721 292.616C179.086 293.32 180.163 294.344 180.953 295.688C181.742 297.011 182.137 298.6 182.137 300.456C182.137 300.648 182.126 300.872 182.105 301.128C182.083 301.363 182.062 301.587 182.041 301.8H168.057V298.888H179.417L177.497 299.752C177.497 298.856 177.315 298.077 176.953 297.416C176.59 296.755 176.089 296.243 175.449 295.88C174.809 295.496 174.062 295.304 173.209 295.304C172.355 295.304 171.598 295.496 170.937 295.88C170.297 296.243 169.795 296.765 169.433 297.448C169.07 298.109 168.889 298.899 168.889 299.816V300.584C168.889 301.523 169.091 302.355 169.497 303.08C169.923 303.784 170.51 304.328 171.257 304.712C172.025 305.075 172.921 305.256 173.945 305.256C174.862 305.256 175.662 305.117 176.345 304.84C177.049 304.563 177.689 304.147 178.265 303.592L180.921 306.472C180.131 307.368 179.139 308.061 177.945 308.552C176.75 309.021 175.374 309.256 173.817 309.256ZM201.563 309.256C199.536 309.256 197.957 308.744 196.827 307.72C195.696 306.675 195.131 305.128 195.131 303.08V287.976H200.123V303.016C200.123 303.741 200.315 304.307 200.699 304.712C201.083 305.096 201.605 305.288 202.267 305.288C203.056 305.288 203.728 305.075 204.283 304.648L205.627 308.168C205.115 308.531 204.496 308.808 203.771 309C203.067 309.171 202.331 309.256 201.563 309.256ZM192.475 296.008V292.168H204.411V296.008H192.475ZM218.893 291.528C220.258 291.528 221.474 291.805 222.541 292.36C223.629 292.893 224.482 293.725 225.101 294.856C225.72 295.965 226.029 297.395 226.029 299.144V309H221.037V299.912C221.037 298.525 220.728 297.501 220.109 296.84C219.512 296.179 218.658 295.848 217.549 295.848C216.76 295.848 216.045 296.019 215.405 296.36C214.786 296.68 214.296 297.181 213.933 297.864C213.592 298.547 213.421 299.421 213.421 300.488V309H208.429V285.256H213.421V296.552L212.301 295.112C212.92 293.96 213.805 293.075 214.957 292.456C216.109 291.837 217.421 291.528 218.893 291.528ZM239.223 309.256C237.26 309.256 235.532 308.872 234.039 308.104C232.567 307.336 231.426 306.291 230.615 304.968C229.804 303.624 229.399 302.099 229.399 300.392C229.399 298.664 229.794 297.139 230.583 295.816C231.394 294.472 232.492 293.427 233.879 292.68C235.266 291.912 236.834 291.528 238.583 291.528C240.268 291.528 241.783 291.891 243.127 292.616C244.492 293.32 245.57 294.344 246.359 295.688C247.148 297.011 247.543 298.6 247.543 300.456C247.543 300.648 247.532 300.872 247.511 301.128C247.49 301.363 247.468 301.587 247.447 301.8H233.463V298.888H244.823L242.903 299.752C242.903 298.856 242.722 298.077 242.359 297.416C241.996 296.755 241.495 296.243 240.855 295.88C240.215 295.496 239.468 295.304 238.615 295.304C237.762 295.304 237.004 295.496 236.343 295.88C235.703 296.243 235.202 296.765 234.839 297.448C234.476 298.109 234.295 298.899 234.295 299.816V300.584C234.295 301.523 234.498 302.355 234.903 303.08C235.33 303.784 235.916 304.328 236.663 304.712C237.431 305.075 238.327 305.256 239.351 305.256C240.268 305.256 241.068 305.117 241.751 304.84C242.455 304.563 243.095 304.147 243.671 303.592L246.327 306.472C245.538 307.368 244.546 308.061 243.351 308.552C242.156 309.021 240.78 309.256 239.223 309.256ZM267.193 309.256C265.764 309.256 264.484 308.979 263.353 308.424C262.244 307.869 261.38 307.027 260.761 305.896C260.142 304.744 259.833 303.283 259.833 301.512V291.784H264.825V300.776C264.825 302.205 265.124 303.261 265.721 303.944C266.34 304.605 267.204 304.936 268.313 304.936C269.081 304.936 269.764 304.776 270.361 304.456C270.958 304.115 271.428 303.603 271.769 302.92C272.11 302.216 272.281 301.341 272.281 300.296V291.784H277.273V309H272.537V304.264L273.401 305.64C272.825 306.835 271.972 307.741 270.841 308.36C269.732 308.957 268.516 309.256 267.193 309.256ZM292.362 291.528C293.727 291.528 294.943 291.805 296.01 292.36C297.098 292.893 297.951 293.725 298.57 294.856C299.188 295.965 299.498 297.395 299.498 299.144V309H294.506V299.912C294.506 298.525 294.196 297.501 293.578 296.84C292.98 296.179 292.127 295.848 291.018 295.848C290.228 295.848 289.514 296.019 288.874 296.36C288.255 296.68 287.764 297.181 287.402 297.864C287.06 298.547 286.89 299.421 286.89 300.488V309H281.898V291.784H286.666V296.552L285.77 295.112C286.388 293.96 287.274 293.075 288.426 292.456C289.578 291.837 290.89 291.528 292.362 291.528ZM312.692 309.256C310.729 309.256 309.001 308.872 307.508 308.104C306.036 307.336 304.894 306.291 304.084 304.968C303.273 303.624 302.868 302.099 302.868 300.392C302.868 298.664 303.262 297.139 304.052 295.816C304.862 294.472 305.961 293.427 307.348 292.68C308.734 291.912 310.302 291.528 312.052 291.528C313.737 291.528 315.252 291.891 316.596 292.616C317.961 293.32 319.038 294.344 319.828 295.688C320.617 297.011 321.012 298.6 321.012 300.456C321.012 300.648 321.001 300.872 320.98 301.128C320.958 301.363 320.937 301.587 320.916 301.8H306.932V298.888H318.292L316.372 299.752C316.372 298.856 316.19 298.077 315.828 297.416C315.465 296.755 314.964 296.243 314.324 295.88C313.684 295.496 312.937 295.304 312.084 295.304C311.23 295.304 310.473 295.496 309.812 295.88C309.172 296.243 308.67 296.765 308.308 297.448C307.945 298.109 307.764 298.899 307.764 299.816V300.584C307.764 301.523 307.966 302.355 308.372 303.08C308.798 303.784 309.385 304.328 310.132 304.712C310.9 305.075 311.796 305.256 312.82 305.256C313.737 305.256 314.537 305.117 315.22 304.84C315.924 304.563 316.564 304.147 317.14 303.592L319.796 306.472C319.006 307.368 318.014 308.061 316.82 308.552C315.625 309.021 314.249 309.256 312.692 309.256ZM321.691 309L329.403 298.888L329.307 301.64L321.915 291.784H327.515L332.187 298.216L330.075 298.28L334.907 291.784H340.219L332.795 301.544V298.856L340.475 309H334.811L329.915 302.152L331.995 302.44L327.131 309H321.691ZM353.074 309.256C351.623 309.256 350.354 308.936 349.266 308.296C348.178 307.656 347.324 306.685 346.706 305.384C346.108 304.061 345.81 302.397 345.81 300.392C345.81 298.365 346.098 296.701 346.674 295.4C347.25 294.099 348.082 293.128 349.17 292.488C350.258 291.848 351.559 291.528 353.074 291.528C354.695 291.528 356.146 291.901 357.426 292.648C358.727 293.373 359.751 294.397 360.498 295.72C361.266 297.043 361.65 298.6 361.65 300.392C361.65 302.205 361.266 303.773 360.498 305.096C359.751 306.419 358.727 307.443 357.426 308.168C356.146 308.893 354.695 309.256 353.074 309.256ZM342.898 315.208V291.784H347.666V295.304L347.57 300.424L347.89 305.512V315.208H342.898ZM352.21 305.16C353.042 305.16 353.778 304.968 354.418 304.584C355.079 304.2 355.602 303.656 355.986 302.952C356.391 302.227 356.594 301.373 356.594 300.392C356.594 299.389 356.391 298.536 355.986 297.832C355.602 297.128 355.079 296.584 354.418 296.2C353.778 295.816 353.042 295.624 352.21 295.624C351.378 295.624 350.631 295.816 349.97 296.2C349.308 296.584 348.786 297.128 348.402 297.832C348.018 298.536 347.826 299.389 347.826 300.392C347.826 301.373 348.018 302.227 348.402 302.952C348.786 303.656 349.308 304.2 349.97 304.584C350.631 304.968 351.378 305.16 352.21 305.16ZM364.992 309V285.256H369.984V309H364.992ZM382.809 309.256C380.974 309.256 379.342 308.872 377.913 308.104C376.505 307.336 375.385 306.291 374.553 304.968C373.742 303.624 373.337 302.099 373.337 300.392C373.337 298.664 373.742 297.139 374.553 295.816C375.385 294.472 376.505 293.427 377.913 292.68C379.342 291.912 380.974 291.528 382.809 291.528C384.622 291.528 386.243 291.912 387.673 292.68C389.102 293.427 390.222 294.461 391.033 295.784C391.843 297.107 392.249 298.643 392.249 300.392C392.249 302.099 391.843 303.624 391.033 304.968C390.222 306.291 389.102 307.336 387.673 308.104C386.243 308.872 384.622 309.256 382.809 309.256ZM382.809 305.16C383.641 305.16 384.387 304.968 385.049 304.584C385.71 304.2 386.233 303.656 386.617 302.952C387.001 302.227 387.193 301.373 387.193 300.392C387.193 299.389 387.001 298.536 386.617 297.832C386.233 297.128 385.71 296.584 385.049 296.2C384.387 295.816 383.641 295.624 382.809 295.624C381.977 295.624 381.23 295.816 380.569 296.2C379.907 296.584 379.374 297.128 378.969 297.832C378.585 298.536 378.393 299.389 378.393 300.392C378.393 301.373 378.585 302.227 378.969 302.952C379.374 303.656 379.907 304.2 380.569 304.584C381.23 304.968 381.977 305.16 382.809 305.16ZM395.585 309V291.784H400.353V296.648L399.681 295.24C400.193 294.024 401.015 293.107 402.145 292.488C403.276 291.848 404.652 291.528 406.273 291.528V296.136C406.06 296.115 405.868 296.104 405.697 296.104C405.527 296.083 405.345 296.072 405.153 296.072C403.788 296.072 402.679 296.467 401.825 297.256C400.993 298.024 400.577 299.229 400.577 300.872V309H395.585ZM417.661 309.256C415.698 309.256 413.97 308.872 412.477 308.104C411.005 307.336 409.863 306.291 409.053 304.968C408.242 303.624 407.837 302.099 407.837 300.392C407.837 298.664 408.231 297.139 409.021 295.816C409.831 294.472 410.93 293.427 412.317 292.68C413.703 291.912 415.271 291.528 417.021 291.528C418.706 291.528 420.221 291.891 421.565 292.616C422.93 293.32 424.007 294.344 424.797 295.688C425.586 297.011 425.981 298.6 425.981 300.456C425.981 300.648 425.97 300.872 425.949 301.128C425.927 301.363 425.906 301.587 425.885 301.8H411.901V298.888H423.26L421.341 299.752C421.341 298.856 421.159 298.077 420.797 297.416C420.434 296.755 419.933 296.243 419.293 295.88C418.653 295.496 417.906 295.304 417.053 295.304C416.199 295.304 415.442 295.496 414.781 295.88C414.141 296.243 413.639 296.765 413.277 297.448C412.914 298.109 412.733 298.899 412.733 299.816V300.584C412.733 301.523 412.935 302.355 413.341 303.08C413.767 303.784 414.354 304.328 415.101 304.712C415.869 305.075 416.765 305.256 417.789 305.256C418.706 305.256 419.506 305.117 420.189 304.84C420.893 304.563 421.533 304.147 422.109 303.592L424.765 306.472C423.975 307.368 422.983 308.061 421.789 308.552C420.594 309.021 419.218 309.256 417.661 309.256ZM436.696 309.256C435.075 309.256 433.613 308.893 432.312 308.168C431.011 307.421 429.976 306.387 429.208 305.064C428.461 303.741 428.088 302.184 428.088 300.392C428.088 298.579 428.461 297.011 429.208 295.688C429.976 294.365 431.011 293.341 432.312 292.616C433.613 291.891 435.075 291.528 436.696 291.528C438.147 291.528 439.416 291.848 440.504 292.488C441.592 293.128 442.435 294.099 443.032 295.4C443.629 296.701 443.928 298.365 443.928 300.392C443.928 302.397 443.64 304.061 443.064 305.384C442.488 306.685 441.656 307.656 440.568 308.296C439.501 308.936 438.211 309.256 436.696 309.256ZM437.56 305.16C438.371 305.16 439.107 304.968 439.768 304.584C440.429 304.2 440.952 303.656 441.336 302.952C441.741 302.227 441.944 301.373 441.944 300.392C441.944 299.389 441.741 298.536 441.336 297.832C440.952 297.128 440.429 296.584 439.768 296.2C439.107 295.816 438.371 295.624 437.56 295.624C436.728 295.624 435.981 295.816 435.32 296.2C434.659 296.584 434.125 297.128 433.72 297.832C433.336 298.536 433.144 299.389 433.144 300.392C433.144 301.373 433.336 302.227 433.72 302.952C434.125 303.656 434.659 304.2 435.32 304.584C435.981 304.968 436.728 305.16 437.56 305.16ZM442.072 309V305.48L442.168 300.36L441.848 295.272V285.256H446.84V309H442.072Z" fill="white"/>
<defs>
<radialGradient id="paint0_radial_305_3" cx="0" cy="0" r="1" gradientUnits="userSpaceOnUse" gradientTransform="translate(254 297) rotate(90) scale(239 404.024)">
<stop stop-color="#524C4C"/>
<stop offset="0.932292" stop-opacity="0.9"/>
</radialGradient>
</defs>
</svg>
